# File produced by Open Asset Import Library (http://www.assimp.sf.net)
# (assimp v3.1.187496374)

mtllib drake_graspable_object.obj.mtl

# 56 vertex positions
v  0.09 0 -0.05
v  0 0 0
v  0 0 -0.05
v  0.09 0 0
v  0.09 0.01 0
v  0 0.01 0
v  0 0.12 -0.05
v  0 0.11 0
v  0 0.12 0
v  0 0.11 -0.02
v  0 0.11 -0.03
v  0 0.11 -0.05
v  0 0.1 -0.02
v  0 0.02 -0.02
v  0 0.01 -0.02
v  0 0.01 -0.03
v  0 0.1 -0.03
v  0 0.02 0
v  0 0.1 0
v  0 0.1 -0.05
v  0 0.02 -0.03
v  0 0.01 -0.05
v  0 0.02 -0.05
v  0.09 0.01 -0.05
v  0.09 0.01 -0.02
v  0.09 0.01 -0.03
v  0.09 0.02 -0.02
v  0.09 0.1 -0.02
v  0.09 0.11 -0.02
v  0.09 0.11 -0.03
v  0.09 0.02 -0.03
v  0.09 0.1 0
v  0.09 0.02 0
v  0.09 0.02 -0.05
v  0.09 0.1 -0.03
v  0.09 0.12 -0.05
v  0.09 0.11 -0.05
v  0.09 0.12 0
v  0.09 0.11 0
v  0.09 0.1 -0.05
v  0.08 0.02 -0.02
v  0.01 0.02 -0.02
v  0.08 0.1 -0.02
v  0.01 0.1 -0.02
v  0.01 0.02 0
v  0.01 0.1 0
v  0.01 0.1 -0.03
v  0.08 0.1 -0.03
v  0.08 0.02 -0.03
v  0.01 0.02 -0.03
v  0.01 0.1 -0.05
v  0.01 0.02 -0.05
v  0.08 0.02 -0.05
v  0.08 0.1 -0.05
v  0.08 0.1 0
v  0.08 0.02 0

# 0 UV coordinates

# 6 vertex normals
vn 0 -0.0254 0
vn 0 0 0.0254
vn -0.0254 0 0
vn 0 0 -0.0254
vn 0.0254 0 0
vn 0 0.0254 0

# Mesh 'SketchUp_ID3' with 108 faces
g SketchUp_ID3
usemtl ID5
f  1//1 2//1 3//1
f  2//1 1//1 4//1
f  5//2 2//2 4//2
f  2//2 5//2 6//2
f  7//3 8//3 9//3
f  8//3 7//3 10//3
f  10//3 7//3 11//3
f  11//3 7//3 12//3
f  10//3 11//3 13//3
f  13//3 11//3 14//3
f  14//3 11//3 15//3
f  16//3 15//3 11//3
f  16//3 11//3 17//3
f  13//3 18//3 19//3
f  18//3 13//3 14//3
f  20//3 21//3 17//3
f  16//3 17//3 21//3
f  3//3 15//3 16//3
f  3//3 16//3 22//3
f  2//3 15//3 3//3
f  15//3 2//3 6//3
f  21//3 20//3 23//3
f  22//4 1//4 3//4
f  1//4 22//4 24//4
f  1//5 5//5 4//5
f  5//5 1//5 25//5
f  25//5 1//5 26//5
f  26//5 1//5 24//5
f  25//5 26//5 27//5
f  27//5 26//5 28//5
f  28//5 26//5 29//5
f  30//5 29//5 26//5
f  30//5 26//5 31//5
f  27//5 32//5 33//5
f  32//5 27//5 28//5
f  34//5 35//5 31//5
f  30//5 31//5 35//5
f  36//5 29//5 30//5
f  36//5 30//5 37//5
f  38//5 29//5 36//5
f  29//5 38//5 39//5
f  35//5 34//5 40//5
f  5//6 15//6 6//6
f  15//6 5//6 25//6
f  27//2 15//2 25//2
f  15//2 27//2 41//2
f  15//2 41//2 14//2
f  14//2 41//2 42//2
f  43//2 42//2 41//2
f  42//2 43//2 44//2
f  29//2 43//2 28//2
f  43//2 29//2 44//2
f  44//2 10//2 13//2
f  10//2 44//2 29//2
f  42//1 18//1 14//1
f  18//1 42//1 45//1
f  46//2 18//2 45//2
f  18//2 46//2 19//2
f  46//6 13//6 19//6
f  13//6 46//6 44//6
f  29//1 8//1 10//1
f  8//1 29//1 39//1
f  38//2 8//2 39//2
f  8//2 38//2 9//2
f  38//6 7//6 9//6
f  7//6 38//6 36//6
f  7//4 37//4 12//4
f  37//4 7//4 36//4
f  37//1 11//1 12//1
f  11//1 37//1 30//1
f  11//4 47//4 17//4
f  47//4 11//4 48//4
f  48//4 11//4 35//4
f  35//4 11//4 30//4
f  47//4 49//4 50//4
f  49//4 47//4 48//4
f  31//4 50//4 49//4
f  31//4 21//4 50//4
f  26//4 21//4 31//4
f  21//4 26//4 16//4
f  47//6 20//6 17//6
f  20//6 47//6 51//6
f  20//4 52//4 23//4
f  52//4 20//4 51//4
f  52//1 21//1 23//1
f  21//1 52//1 50//1
f  26//6 22//6 16//6
f  22//6 26//6 24//6
f  34//1 49//1 53//1
f  49//1 34//1 31//1
f  54//4 34//4 53//4
f  34//4 54//4 40//4
f  35//6 54//6 48//6
f  54//6 35//6 40//6
f  32//6 43//6 55//6
f  43//6 32//6 28//6
f  32//2 56//2 33//2
f  56//2 32//2 55//2
f  27//1 56//1 41//1
f  56//1 27//1 33//1
f  42//5 46//5 45//5
f  46//5 42//5 44//5
f  43//3 56//3 55//3
f  56//3 43//3 41//3
f  54//3 49//3 48//3
f  49//3 54//3 53//3
f  52//5 47//5 50//5
f  47//5 52//5 51//5

