# File produced by Open Asset Import Library (http://www.assimp.sf.net)
# (assimp v3.1.187496374)

mtllib drake_graspable_soda.obj.mtl

# 70 vertex positions
v  0.09 0 -0.05
v  0.09 0.01 0
v  0.09 0 0
v  0.09 0.01 -0.05
v  0 0.01 -0.05
v  0 0 -0.05
v  0 0.01 0
v  0.01 0.01 -0.01
v  0.01 0.01 -0.02
v  0.02 0.01 -0.01
v  0.01 0.01 -0.04
v  0.01 0.01 -0.03
v  0.02 0.01 -0.04
v  0.07 0.01 -0.04
v  0.08 0.01 -0.04
v  0.08 0.01 -0.03
v  0.08 0.01 -0.02
v  0.08 0.01 -0.01
v  0.07 0.01 -0.01
v  0 0 0
v  0.08 0 -0.02
v  0.07 0 -0.01
v  0.07 0 -0.02
v  0.08 0 -0.03
v  0.02 0 -0.01
v  0.01 0 -0.02
v  0.02 0 -0.02
v  0.01 0 -0.03
v  0.02 0 -0.04
v  0.02 0 -0.03
v  0.07 0 -0.04
v  0.07 0 -0.03
v  0.02 0.12 -0.02
v  0.02 0.11 -0.01
v  0.02 0.12 -0.01
v  0.01 0.11 -0.02
v  0.01 0.12 -0.02
v  0.01 0.11 -0.01
v  0.07 0.11 -0.01
v  0.07 0.12 -0.01
v  0.08 0.11 -0.01
v  0.01 0.11 -0.03
v  0.01 0.12 -0.03
v  0.01 0.11 -0.04
v  0.07 0.12 -0.02
v  0.02 0.12 -0.03
v  0.08 0.11 -0.02
v  0.08 0.12 -0.02
v  0.02 0.12 -0.04
v  0.02 0.11 -0.04
v  0.08 0.12 -0.03
v  0.08 0.11 -0.03
v  0.08 0.11 -0.04
v  0.07 0.12 -0.04
v  0.07 0.11 -0.04
v  0.07 0.12 -0.03
v  0.09 0.12 0
v  0.09 0.12 -0.05
v  0 0.12 -0.05
v  0 0.12 0
v  0.09 0.11 -0.05
v  0.09 0.11 0
v  0 0.11 -0.05
v  0 0.11 0
v  0.08 0.12 -0.01
v  0.08 0.12 -0.04
v  0.08 0 -0.04
v  0.01 0.12 -0.04
v  0.01 0 -0.04
v  0.01 0 -0.01

# 0 UV coordinates

# 6 vertex normals
vn 0.0254 0 0
vn 0 0 -0.0254
vn 0 0.0254 0
vn 0 0 0.0254
vn 0 -0.0254 0
vn -0.0254 0 0

# Mesh 'SketchUp' with 144 faces
g SketchUp
usemtl ID5
f  1//1 2//1 3//1
f  2//1 1//1 4//1
f  5//2 1//2 6//2
f  1//2 5//2 4//2
f  7//3 8//3 5//3
f  8//3 7//3 2//3
f  5//3 8//3 9//3
f  8//3 2//3 10//3
f  5//3 11//3 4//3
f  11//3 5//3 9//3
f  11//3 9//3 12//3
f  4//3 11//3 13//3
f  4//3 13//3 14//3
f  4//3 14//3 15//3
f  4//3 15//3 2//3
f  16//3 2//3 15//3
f  17//3 2//3 16//3
f  18//3 2//3 17//3
f  19//3 2//3 18//3
f  10//3 2//3 19//3
f  2//4 20//4 3//4
f  20//4 2//4 7//4
f  21//5 22//5 23//5
f  24//5 1//5 21//5
f  3//5 22//5 21//5
f  3//5 21//5 1//5
f  3//5 25//5 22//5
f  20//5 25//5 3//5
f  25//5 20//5 26//5
f  25//5 26//5 27//5
f  6//5 28//5 20//5
f  26//5 20//5 28//5
f  28//5 6//5 29//5
f  29//5 6//5 1//5
f  30//5 28//5 29//5
f  29//5 1//5 31//5
f  31//5 1//5 32//5
f  32//5 1//5 24//5
f  5//6 20//6 7//6
f  20//6 5//6 6//6
f  33//6 34//6 35//6
f  34//6 33//6 10//6
f  10//6 33//6 25//6
f  25//6 33//6 27//6
f  33//4 26//4 27//4
f  26//4 33//4 9//4
f  9//4 33//4 36//4
f  36//4 33//4 37//4
f  10//2 22//2 25//2
f  22//2 10//2 19//2
f  38//2 10//2 8//2
f  10//2 38//2 34//2
f  39//2 18//2 19//2
f  35//2 39//2 34//2
f  39//2 35//2 40//2
f  18//2 39//2 41//2
f  42//1 37//1 36//1
f  37//1 42//1 43//1
f  11//1 42//1 12//1
f  42//1 11//1 44//1
f  38//1 9//1 36//1
f  9//1 38//1 8//1
f  28//1 9//1 26//1
f  9//1 28//1 12//1
f  23//1 19//1 22//1
f  19//1 23//1 39//1
f  39//1 23//1 40//1
f  40//1 23//1 45//1
f  12//2 30//2 28//2
f  30//2 12//2 46//2
f  46//2 12//2 42//2
f  46//2 42//2 43//2
f  17//4 23//4 21//4
f  23//4 17//4 45//4
f  45//4 17//4 47//4
f  45//4 47//4 48//4
f  49//6 30//6 46//6
f  30//6 49//6 29//6
f  29//6 49//6 50//6
f  29//6 50//6 13//6
f  47//6 18//6 41//6
f  18//6 47//6 17//6
f  51//6 47//6 48//6
f  47//6 51//6 52//6
f  16//6 21//6 17//6
f  21//6 16//6 24//6
f  53//6 16//6 52//6
f  16//6 53//6 15//6
f  54//4 50//4 55//4
f  50//4 54//4 49//4
f  50//4 11//4 13//4
f  11//4 50//4 44//4
f  31//4 13//4 29//4
f  13//4 31//4 14//4
f  15//4 55//4 14//4
f  55//4 15//4 53//4
f  56//2 24//2 32//2
f  24//2 56//2 16//2
f  16//2 56//2 52//2
f  52//2 56//2 51//2
f  31//1 56//1 32//1
f  56//1 31//1 54//1
f  54//1 31//1 14//1
f  54//1 14//1 55//1
f  51//3 54//3 56//3
f  48//3 57//3 51//3
f  58//3 54//3 51//3
f  58//3 51//3 57//3
f  58//3 49//3 54//3
f  59//3 49//3 58//3
f  49//3 59//3 43//3
f  49//3 43//3 46//3
f  60//3 37//3 59//3
f  43//3 59//3 37//3
f  37//3 60//3 35//3
f  35//3 60//3 57//3
f  33//3 37//3 35//3
f  35//3 57//3 40//3
f  40//3 57//3 45//3
f  45//3 57//3 48//3
f  61//1 57//1 62//1
f  57//1 61//1 58//1
f  59//2 61//2 63//2
f  61//2 59//2 58//2
f  59//6 64//6 60//6
f  64//6 59//6 63//6
f  57//4 64//4 62//4
f  64//4 57//4 60//4
f  63//5 44//5 64//5
f  44//5 63//5 61//5
f  44//5 61//5 50//5
f  36//5 64//5 44//5
f  36//5 44//5 42//5
f  64//5 38//5 62//5
f  38//5 64//5 36//5
f  62//5 38//5 34//5
f  62//5 34//5 39//5
f  62//5 39//5 41//5
f  62//5 41//5 61//5
f  47//5 61//5 41//5
f  52//5 61//5 47//5
f  53//5 61//5 52//5
f  55//5 61//5 53//5
f  50//5 61//5 55//5

# Mesh 'SketchUp' with 6 faces
g SketchUp
usemtl ID24
l  65 41
l  66 53
l  15 67
l  68 44
l  11 69
l  8 70

